<svg width="720" height="430" viewBox="0 0 720 430" fill="none" xmlns="http://www.w3.org/2000/svg" role="img" aria-labelledby="title desc">
  <title id="title">Programmers progress card</title>
  <desc id="desc">Repository-driven Programmers solving stats for xxh3898/CodingTests</desc>
  <style>
    .title { fill: #f8fafc; font: 700 28px 'Segoe UI', 'Apple SD Gothic Neo', 'Noto Sans KR', sans-serif; }
    .subtitle { fill: #94a3b8; font: 500 13px 'Segoe UI', 'Apple SD Gothic Neo', 'Noto Sans KR', sans-serif; }
    .metric-label { fill: #94a3b8; font: 600 12px 'Segoe UI', 'Apple SD Gothic Neo', 'Noto Sans KR', sans-serif; letter-spacing: 0; }
    .metric-value { fill: #f8fafc; font: 800 32px 'Segoe UI', 'Apple SD Gothic Neo', 'Noto Sans KR', sans-serif; }
    .muted { fill: #cbd5e1; font: 700 12px 'Segoe UI', 'Apple SD Gothic Neo', 'Noto Sans KR', sans-serif; }
    .level-count { fill: #f8fafc; font: 800 20px 'Segoe UI', 'Apple SD Gothic Neo', 'Noto Sans KR', sans-serif; }
    .latest { fill: #dbeafe; font: 600 13px 'Segoe UI', 'Apple SD Gothic Neo', 'Noto Sans KR', sans-serif; }
    .small { fill: #94a3b8; font: 600 12px 'Segoe UI', 'Apple SD Gothic Neo', 'Noto Sans KR', sans-serif; }
  </style>
  <rect width="720" height="430" rx="18" fill="#0f172a"/>
  <rect x="1" y="1" width="718" height="428" rx="17" stroke="#1e293b"/>

  <text x="38" y="52" class="title">Programmers Progress</text>
  <text x="38" y="76" class="subtitle">Generated from xxh3898/CodingTests repository files</text>
  <text x="38" y="99" class="small">Updated 2026.04.30 15:00 KST</text>

  <g transform="translate(38 126)">
    <text x="0" y="0" class="metric-label">SOLVED</text>
    <text x="0" y="42" class="metric-value">7</text>
  </g>
  <g transform="translate(220 126)">
    <text x="0" y="0" class="metric-label">CUSTOM SCORE</text>
    <text x="0" y="42" class="metric-value">11</text>
  </g>
  <g transform="translate(438 126)">
    <text x="0" y="0" class="metric-label">LANGUAGES</text>
    <text x="0" y="29" class="latest">Java 6 · SQL 1</text>
  </g>

  <text x="38" y="216" class="metric-label">LEVEL BREAKDOWN</text>
  
        <g transform="translate(38 236)">
          <text x="0" y="0" class="muted">Lv. 0</text>
          <rect x="0" y="14" width="74" height="8" rx="4" fill="#243044"/>
          <rect x="0" y="14" width="74" height="8" rx="4" fill="#60a5fa"/>
          <text x="0" y="50" class="level-count">5</text>
        </g>
        <g transform="translate(146 236)">
          <text x="0" y="0" class="muted">Lv. 1</text>
          <rect x="0" y="14" width="74" height="8" rx="4" fill="#243044"/>
          <rect x="0" y="14" width="30" height="8" rx="4" fill="#34d399"/>
          <text x="0" y="50" class="level-count">2</text>
        </g>
        <g transform="translate(254 236)">
          <text x="0" y="0" class="muted">Lv. 2</text>
          <rect x="0" y="14" width="74" height="8" rx="4" fill="#243044"/>
          <rect x="0" y="14" width="0" height="8" rx="4" fill="#fbbf24"/>
          <text x="0" y="50" class="level-count">0</text>
        </g>
        <g transform="translate(362 236)">
          <text x="0" y="0" class="muted">Lv. 3</text>
          <rect x="0" y="14" width="74" height="8" rx="4" fill="#243044"/>
          <rect x="0" y="14" width="0" height="8" rx="4" fill="#fb7185"/>
          <text x="0" y="50" class="level-count">0</text>
        </g>
        <g transform="translate(470 236)">
          <text x="0" y="0" class="muted">Lv. 4</text>
          <rect x="0" y="14" width="74" height="8" rx="4" fill="#243044"/>
          <rect x="0" y="14" width="0" height="8" rx="4" fill="#c084fc"/>
          <text x="0" y="50" class="level-count">0</text>
        </g>
        <g transform="translate(578 236)">
          <text x="0" y="0" class="muted">Lv. 5</text>
          <rect x="0" y="14" width="74" height="8" rx="4" fill="#243044"/>
          <rect x="0" y="14" width="0" height="8" rx="4" fill="#38bdf8"/>
          <text x="0" y="50" class="level-count">0</text>
        </g>

  <text x="38" y="326" class="metric-label">LATEST SOLVED</text>
  <text x="38" y="350" class="latest">Lv. 0 · 피자 나눠 먹기 (1) · Java</text>
<text x="38" y="370" class="latest">Lv. 1 · 숫자 짝꿍 · Java</text>
<text x="38" y="390" class="latest">Lv. 0 · 대소문자 바꿔서 출력하기 · Java</text>
<text x="38" y="410" class="latest">Lv. 0 · 문자열 반복해서 출력하기 · Java</text>
</svg>
